<svg width="23" height="23" viewBox="0 0 23 23" fill="none" xmlns="http://www.w3.org/2000/svg">
<path d="M11.462 10.8471L21.4267 4.86752V4.84156C21.4267 4.63792 21.3888 4.44226 21.3109 4.25458C21.233 4.06691 21.1212 3.9012 20.9775 3.75745C20.8337 3.6137 20.668 3.50389 20.4803 3.42602C20.2927 3.34816 20.097 3.30823 19.8934 3.30823H3.02869C2.82505 3.30823 2.62939 3.34816 2.44172 3.42602C2.25404 3.50389 2.08833 3.6137 1.94458 3.75745C1.80083 3.9012 1.69102 4.06691 1.61316 4.25458C1.53529 4.44226 1.49536 4.63792 1.49536 4.84156V4.86752L11.462 10.8471Z" fill="#3CB4D4"/>
<path d="M11.8553 12.3984C11.7356 12.4723 11.6038 12.5082 11.462 12.5082C11.3203 12.5082 11.1885 12.4723 11.0667 12.3984L1.49536 6.65637V17.1082C1.49536 17.3118 1.53529 17.5075 1.61316 17.6952C1.69102 17.8828 1.80083 18.0486 1.94458 18.1923C2.08833 18.3361 2.25404 18.4479 2.44172 18.5257C2.62939 18.6036 2.82505 18.6415 3.02869 18.6415H19.8934C20.097 18.6415 20.2927 18.6036 20.4803 18.5257C20.668 18.4479 20.8337 18.3361 20.9775 18.1923C21.1212 18.0486 21.233 17.8828 21.3109 17.6952C21.3888 17.5075 21.4267 17.3118 21.4267 17.1082V6.65637L11.8553 12.3984Z" fill="#3CB4D4"/>
</svg>
