<svg width="23" height="23" viewBox="0 0 23 23" fill="none" xmlns="http://www.w3.org/2000/svg">
<path d="M3.77734 18.937C3.77734 20.2807 4.89141 21.3748 6.25903 21.3748H16.9404C18.3081 21.3748 19.4221 20.2807 19.4221 18.937V11.5938C19.4221 10.5017 18.6814 9.5873 17.6812 9.27984V7.41508C17.6812 4.1228 14.9519 1.44147 11.5997 1.44147C8.24957 1.44147 5.51832 4.1228 5.51832 7.41508V9.27984C4.51806 9.5873 3.77734 10.5017 3.77734 11.5938V18.937ZM12.582 17.0144V17.246C12.582 17.7791 12.1428 18.2103 11.5997 18.2103C11.0567 18.2103 10.6174 17.7791 10.6174 17.246V17.0144C9.73498 16.641 9.10608 15.7745 9.10608 14.7703C9.10608 13.4206 10.2261 12.3205 11.5997 12.3205C12.9753 12.3205 14.0934 13.4206 14.0934 14.7703C14.0934 15.7745 13.4645 16.641 12.582 17.0144ZM7.4829 7.41508C7.4829 5.18296 9.32769 3.37011 11.5997 3.37011C13.8718 3.37011 15.7166 5.18296 15.7166 7.41508V9.15805H7.4829V7.41508Z" fill="#3CB4D4"/>
<path d="M11.5999 14.2492C11.3124 14.2492 11.0708 14.4808 11.0708 14.7703C11.0708 15.0538 11.3124 15.2854 11.5999 15.2854C11.8874 15.2854 12.131 15.0538 12.131 14.7703C12.131 14.4808 11.8874 14.2492 11.5999 14.2492Z" fill="#3CB4D4"/>
</svg>
