<svg width="26" height="26" viewBox="0 0 26 26" fill="none" xmlns="http://www.w3.org/2000/svg">
<path d="M0 13C0 5.8203 5.8203 0 13 0V0C20.1797 0 26 5.8203 26 13V13C26 20.1797 20.1797 26 13 26V26C5.8203 26 0 20.1797 0 13V13Z" fill="white"/>
<path fill-rule="evenodd" clip-rule="evenodd" d="M21.0209 13.192C21.0209 12.5928 20.9672 12.0167 20.8673 11.4636H12.9089V14.7322H17.4566C17.2607 15.7885 16.6653 16.6834 15.7704 17.2826V19.4028H18.5013C20.0991 17.9317 21.0209 15.7654 21.0209 13.192Z" fill="#4285F4"/>
<path fill-rule="evenodd" clip-rule="evenodd" d="M12.9089 21.45C15.1904 21.45 17.1032 20.6933 18.5013 19.4028L15.7704 17.2826C15.0137 17.7896 14.0458 18.0892 12.9089 18.0892C10.7081 18.0892 8.84521 16.6027 8.18073 14.6055H5.35767V16.7948C6.74807 19.5564 9.60571 21.45 12.9089 21.45Z" fill="#34A853"/>
<path fill-rule="evenodd" clip-rule="evenodd" d="M8.18082 14.6055C8.01182 14.0985 7.9158 13.5569 7.9158 13C7.9158 12.4431 8.01182 11.9015 8.18082 11.3945V9.2052H5.35776C4.78546 10.3459 4.45898 11.6365 4.45898 13C4.45898 14.3635 4.78546 15.6541 5.35776 16.7948L8.18082 14.6055Z" fill="#FBBC05"/>
<path fill-rule="evenodd" clip-rule="evenodd" d="M12.9089 7.91078C14.1495 7.91078 15.2634 8.33712 16.1391 9.17444L18.5627 6.75083C17.0993 5.38731 15.1865 4.54999 12.9089 4.54999C9.60571 4.54999 6.74807 6.44356 5.35767 9.20517L8.18073 11.3945C8.84521 9.39721 10.7081 7.91078 12.9089 7.91078Z" fill="#EA4335"/>
</svg>
